<?xml version="1.0" encoding="UTF-8"?>
<svg xmlns="http://www.w3.org/2000/svg" viewBox="0 0 545 759.48">
  <g id="Truck">
    <rect x="20.8" y="2.5" width="503.39" height="754.48" rx="12" ry="12" style="fill: #fff; stroke: #4d4d4d; stroke-miterlimit: 10; stroke-width: 5px;"/>
    <g>
      <rect x="2.5" y="64.49" width="5" height="119" rx="1" ry="1" style="fill: #4d4d4d; stroke: #4d4d4d; stroke-miterlimit: 10; stroke-width: 5px;"/>
      <rect x="2.5" y="559.49" width="5" height="119" rx="1" ry="1" style="fill: #4d4d4d; stroke: #4d4d4d; stroke-miterlimit: 10; stroke-width: 5px;"/>
    </g>
    <g>
      <rect x="537.5" y="64.49" width="5" height="119" rx="1" ry="1" transform="translate(1080 247.98) rotate(-180)" style="fill: #4d4d4d; stroke: #4d4d4d; stroke-miterlimit: 10; stroke-width: 5px;"/>
      <rect x="537.5" y="559.49" width="5" height="119" rx="1" ry="1" transform="translate(1080 1237.98) rotate(-180)" style="fill: #4d4d4d; stroke: #4d4d4d; stroke-miterlimit: 10; stroke-width: 5px;"/>
    </g>
    <text transform="translate(469.68 631.02)" style="font-family: MyriadPro-Regular, &apos;Myriad Pro&apos;; font-size: 12px;"><tspan x="0" y="0" style="letter-spacing: -.01em;">L</tspan><tspan x="5.5" y="0">or</tspan></text>
  </g>
  <g id="slot_0" data-name="slot 0">
    <path d="m23.5,585.49h83v74c0,4.97-4.03,9-9,9H23.5v-83h0Z" style="fill: #fff; stroke: #4d4d4d; stroke-miterlimit: 10;"/>
    <text transform="translate(61.92 631.25)" style="font-family: MyriadPro-Regular, &apos;Myriad Pro&apos;; font-size: 12px;"><tspan x="0" y="0">0</tspan></text>
  </g>
  <g id="slot_1" data-name="slot 1">
    <rect x="23.5" y="502.49" width="83" height="83" style="fill: #fff; stroke: #4d4d4d; stroke-miterlimit: 10;"/>
    <text transform="translate(61.92 548.25)" style="font-family: MyriadPro-Regular, &apos;Myriad Pro&apos;; font-size: 12px;"><tspan x="0" y="0">1</tspan></text>
  </g>
  <g id="slot_2" data-name="slot 2">
    <rect x="23.5" y="419.49" width="83" height="83" style="fill: #fff; stroke: #4d4d4d; stroke-miterlimit: 10;"/>
    <text transform="translate(61.92 465.25)" style="font-family: MyriadPro-Regular, &apos;Myriad Pro&apos;; font-size: 12px;"><tspan x="0" y="0">2</tspan></text>
  </g>
  <g id="slot_3" data-name="slot 3">
    <rect x="23.5" y="336.49" width="83" height="83" style="fill: #fff; stroke: #4d4d4d; stroke-miterlimit: 10;"/>
    <text transform="translate(61.92 382.25)" style="font-family: MyriadPro-Regular, &apos;Myriad Pro&apos;; font-size: 12px;"><tspan x="0" y="0">3</tspan></text>
  </g>
  <g id="slot_4" data-name="slot 4">
    <rect x="23.5" y="253.49" width="83" height="83" style="fill: #fff; stroke: #4d4d4d; stroke-miterlimit: 10;"/>
    <text transform="translate(61.92 299.25)" style="font-family: MyriadPro-Regular, &apos;Myriad Pro&apos;; font-size: 12px;"><tspan x="0" y="0">4</tspan></text>
  </g>
  <g id="slot_5" data-name="slot 5">
    <rect x="23.5" y="170.49" width="83" height="83" style="fill: #fff; stroke: #4d4d4d; stroke-miterlimit: 10;"/>
    <text transform="translate(61.92 216.25)" style="font-family: MyriadPro-Regular, &apos;Myriad Pro&apos;; font-size: 12px;"><tspan x="0" y="0">5</tspan></text>
  </g>
  <g id="slot_6" data-name="slot 6">
    <rect x="23.5" y="88.49" width="83" height="83" style="fill: #fff; stroke: #4d4d4d; stroke-miterlimit: 10;"/>
    <text transform="translate(61.92 134.25)" style="font-family: MyriadPro-Regular, &apos;Myriad Pro&apos;; font-size: 12px;"><tspan x="0" y="0">6</tspan></text>
  </g>
  <g id="slot_7" data-name="slot 7">
    <path d="m32.5,5.49h74v83H23.5V14.49c0-4.97,4.03-9,9-9Z" style="fill: #fff; stroke: #4d4d4d; stroke-miterlimit: 10;"/>
    <text transform="translate(61.92 51.25)" style="font-family: MyriadPro-Regular, &apos;Myriad Pro&apos;; font-size: 12px;"><tspan x="0" y="0">7</tspan></text>
  </g>
  <g id="slot_8" data-name="slot 8">
    <rect x="106.5" y="5.49" width="83" height="83" style="fill: #fff; stroke: #4d4d4d; stroke-miterlimit: 10;"/>
    <text transform="translate(144.92 51.25)" style="font-family: MyriadPro-Regular, &apos;Myriad Pro&apos;; font-size: 12px;"><tspan x="0" y="0">8</tspan></text>
  </g>
  <g id="slot_9" data-name="slot 9">
    <rect x="189.5" y="5.49" width="83" height="83" style="fill: #fff; stroke: #4d4d4d; stroke-miterlimit: 10;"/>
    <text transform="translate(227.92 51.25)" style="font-family: MyriadPro-Regular, &apos;Myriad Pro&apos;; font-size: 12px;"><tspan x="0" y="0">9</tspan></text>
  </g>
  <g id="slot_10" data-name="slot 10">
    <rect x="272.5" y="5.49" width="83" height="83" style="fill: #fff; stroke: #4d4d4d; stroke-miterlimit: 10;"/>
    <text transform="translate(307.84 51.25)" style="font-family: MyriadPro-Regular, &apos;Myriad Pro&apos;; font-size: 12px;"><tspan x="0" y="0">10</tspan></text>
  </g>
  <g id="slot_11" data-name="slot 11">
    <rect x="355.5" y="5.49" width="83" height="83" style="fill: #fff; stroke: #4d4d4d; stroke-miterlimit: 10;"/>
    <text transform="translate(390.84 51.25)" style="font-family: MyriadPro-Regular, &apos;Myriad Pro&apos;; font-size: 12px;"><tspan x="0" y="0">11</tspan></text>
  </g>
  <g id="slot_12" data-name="slot 12">
    <path d="m438.5,5.49h83v83h-74c-4.97,0-9-4.03-9-9V5.49h0Z" transform="translate(960 93.98) rotate(180)" style="fill: #fff; stroke: #4d4d4d; stroke-miterlimit: 10;"/>
    <text transform="translate(473.84 51.25)" style="font-family: MyriadPro-Regular, &apos;Myriad Pro&apos;; font-size: 12px;"><tspan x="0" y="0">12</tspan></text>
  </g>
  <g id="slot_13" data-name="slot 13">
    <rect x="438.5" y="88.49" width="83" height="83" style="fill: #fff; stroke: #4d4d4d; stroke-miterlimit: 10;"/>
    <text transform="translate(473.84 134.25)" style="font-family: MyriadPro-Regular, &apos;Myriad Pro&apos;; font-size: 12px;"><tspan x="0" y="0">13</tspan></text>
  </g>
  <g id="slot_14" data-name="slot 14">
    <rect x="438.5" y="171.49" width="83" height="83" style="fill: #fff; stroke: #4d4d4d; stroke-miterlimit: 10;"/>
    <text transform="translate(473.84 217.25)" style="font-family: MyriadPro-Regular, &apos;Myriad Pro&apos;; font-size: 12px;"><tspan x="0" y="0">14</tspan></text>
  </g>
  <g id="slot_15" data-name="slot 15">
    <rect x="438.5" y="254.49" width="83" height="83" style="fill: #fff; stroke: #4d4d4d; stroke-miterlimit: 10;"/>
    <text transform="translate(473.84 300.25)" style="font-family: MyriadPro-Regular, &apos;Myriad Pro&apos;; font-size: 12px;"><tspan x="0" y="0">15</tspan></text>
  </g>
  <g id="slot_16" data-name="slot 16">
    <rect x="438.5" y="337.49" width="83" height="83" style="fill: #fff; stroke: #4d4d4d; stroke-miterlimit: 10;"/>
    <text transform="translate(473.84 383.25)" style="font-family: MyriadPro-Regular, &apos;Myriad Pro&apos;; font-size: 12px;"><tspan x="0" y="0">16</tspan></text>
  </g>
  <g id="slot_17" data-name="slot 17">
    <rect x="438.5" y="420.49" width="83" height="83" style="fill: #fff; stroke: #4d4d4d; stroke-miterlimit: 10;"/>
    <text transform="translate(473.84 466.25)" style="font-family: MyriadPro-Regular, &apos;Myriad Pro&apos;; font-size: 12px;"><tspan x="0" y="0">17</tspan></text>
  </g>
  <g id="slot_18" data-name="slot 18">
    <rect x="438.5" y="503.49" width="83" height="83" style="fill: #fff; stroke: #4d4d4d; stroke-miterlimit: 10;"/>
    <text transform="translate(473.84 549.25)" style="font-family: MyriadPro-Regular, &apos;Myriad Pro&apos;; font-size: 12px;"><tspan x="0" y="0">18</tspan></text>
  </g>
  <g id="slot_19" data-name="slot 19">
    <path d="m438.5,586.49h83v83h-74c-4.97,0-9-4.03-9-9v-74h0Z" style="fill: #fff; stroke: #4d4d4d; stroke-miterlimit: 10;"/>
    <text transform="translate(473.17 631.95)" style="font-family: MyriadPro-Regular, &apos;Myriad Pro&apos;; font-size: 12px;"><tspan x="0" y="0">19</tspan></text>
  </g>
</svg>